<?xml version="1.0" encoding="UTF-8" standalone="no"?>
<!-- Created with Inkscape (http://www.inkscape.org/) -->

<svg
   xmlns:dc="http://purl.org/dc/elements/1.1/"
   xmlns:cc="http://creativecommons.org/ns#"
   xmlns:rdf="http://www.w3.org/1999/02/22-rdf-syntax-ns#"
   xmlns:svg="http://www.w3.org/2000/svg"
   xmlns="http://www.w3.org/2000/svg"
   xmlns:sodipodi="http://sodipodi.sourceforge.net/DTD/sodipodi-0.dtd"
   xmlns:inkscape="http://www.inkscape.org/namespaces/inkscape"
   width="80mm"
   height="95mm"
   viewBox="0 0 283.46457 336.61417"
   id="svg4826"
   version="1.1"
   inkscape:version="0.91 r13725"
   sodipodi:docname="cursiveTutorial.svg">
  <sodipodi:namedview
     id="base"
     pagecolor="#ffffff"
     bordercolor="#666666"
     borderopacity="1.0"
     inkscape:pageopacity="0.0"
     inkscape:pageshadow="2"
     inkscape:zoom="1.6517427"
     inkscape:cx="141.73228"
     inkscape:cy="168.30709"
     inkscape:document-units="px"
     inkscape:current-layer="g4883"
     showgrid="false"
     inkscape:window-width="1308"
     inkscape:window-height="749"
     inkscape:window-x="-4"
     inkscape:window-y="-4"
     inkscape:window-maximized="1" />
  <defs
     id="defs4828" />
  <metadata
     id="metadata4831">
    <rdf:RDF>
      <cc:Work
         rdf:about="">
        <dc:format>image/svg+xml</dc:format>
        <dc:type
           rdf:resource="http://purl.org/dc/dcmitype/StillImage" />
        <dc:title></dc:title>
      </cc:Work>
    </rdf:RDF>
  </metadata>
  <g
     id="g4883">
    <g
       id="g4914">
      <path
         id="path4841"
         d="M 23.444132,224.57057 38.040846,186.88119 45.641914,167.53684 49.442447,154.6406 53.242981,135.29624 53.242981,122.40001 49.442447,115.95189 41.84138,122.40001 38.040846,135.29624 30.439778,186.88119 19.038177,244.91425 7.6365746,290.05108 3.8360405,309.39544 3.8360405,322.29167 7.6365746,328.73979 15.237642,322.29167 19.038177,302.94731 22.838711,244.91425 26.639245,251.36238 34.240312,251.36238 41.84138,244.91425 45.641914,238.46615 53.242981,219.12178"
         style="fill:none;stroke:#000000;stroke-width:4.95038271"
         inkscape:connector-curvature="0"
         sodipodi:nodetypes="ccccccccccccccccccccccc" />
      <path
         id="path4843"
         d="M 87.447788,212.67367 83.647254,199.77743 76.046186,193.32931 68.445119,193.32931 60.844051,199.77743 57.043516,206.22554 53.242981,219.12178 53.242981,232.01802 57.043516,244.91425 64.644585,251.36238 72.245652,251.36238 79.84672,244.91425 83.647254,232.01802 91.248321,193.32931 87.447788,225.5699 87.447788,244.91425 91.248321,251.36238 95.048855,251.36238 102.64992,244.91425 106.45045,238.46615 114.05153,219.12178"
         style="fill:none;stroke:#000000;stroke-width:4.95038271"
         inkscape:connector-curvature="0" />
      <path
         id="path4845"
         d="M 114.05153,219.12178 121.65259,199.77743 129.25366,193.32931 133.05419,199.77743 133.05419,206.22554 129.25366,232.01802 125.45313,251.36238 M 129.25366,232.01802 133.05419,219.12178 140.65526,199.77743 148.25634,193.32931 155.8574,193.32931 159.65793,199.77743 159.65793,212.67367 155.8574,232.01802 155.8574,244.91425 159.65793,251.36238 163.45847,251.36238 171.05953,244.91425 174.86007,238.46615 188.10608,200.90202 201.51203,191.28155 213.99743,197.13971 214.54846,205.19709"
         style="fill:none;stroke:#000000;stroke-width:4.95038271"
         inkscape:connector-curvature="0"
         sodipodi:nodetypes="cccccccccccccccccccccccc" />
      <path
         sodipodi:nodetypes="ccccccccccccc"
         id="path4847"
         d="M 215.42252,207.43557 214.15099,196.75234 205.26434,193.32931 197.66327,193.32931 190.0622,199.77743 186.26168,206.22554 174.59067,225.78141 177.01235,236.86139 184.44542,250.96846 193.86274,251.36238 205.26434,251.36238 216.66594,238.46615 224.26701,219.12178"
         style="fill:none;stroke:#000000;stroke-width:4.95038271"
         inkscape:connector-curvature="0" />
      <path
         id="path4849"
         d="M 224.26701,219.12178 231.86809,193.32931 224.26701,232.01802 224.26701,244.91425 228.06755,251.36238 235.66862,251.36238 243.26968,244.91425 250.87076,232.01802 258.47183,212.67367 M 262.27235,193.32931 239.46915,309.39544 235.66862,322.29167 228.06755,328.73979 224.26701,322.29167 224.26701,309.39544 228.06755,290.05108 239.46915,270.70673 250.87076,257.8105 258.47183,251.36238 269.87343,238.46615 281.27502,219.12178"
         style="fill:none;stroke:#000000;stroke-width:4.95038271"
         inkscape:connector-curvature="0" />
    </g>
  </g>
</svg>
