<?xml version="1.0" encoding="UTF-8" standalone="no"?>
<!-- Created with Inkscape (http://www.inkscape.org/) -->

<svg
   xmlns:dc="http://purl.org/dc/elements/1.1/"
   xmlns:cc="http://creativecommons.org/ns#"
   xmlns:rdf="http://www.w3.org/1999/02/22-rdf-syntax-ns#"
   xmlns:svg="http://www.w3.org/2000/svg"
   xmlns="http://www.w3.org/2000/svg"
   xmlns:sodipodi="http://sodipodi.sourceforge.net/DTD/sodipodi-0.dtd"
   xmlns:inkscape="http://www.inkscape.org/namespaces/inkscape"
   width="80mm"
   height="95mm"
   viewBox="0 0 283.46457 336.61417"
   id="svg3412"
   version="1.1"
   inkscape:version="0.91 r13725"
   sodipodi:docname="textTutorial.svg">
  <sodipodi:namedview
     id="base"
     pagecolor="#ffffff"
     bordercolor="#666666"
     borderopacity="1.0"
     inkscape:pageopacity="0.0"
     inkscape:pageshadow="2"
     inkscape:zoom="1.6517427"
     inkscape:cx="92.539514"
     inkscape:cy="168.30709"
     inkscape:document-units="mm"
     inkscape:current-layer="svg3412"
     showgrid="false"
     inkscape:window-width="1308"
     inkscape:window-height="749"
     inkscape:window-x="-4"
     inkscape:window-y="-4"
     inkscape:window-maximized="1" />
  <defs
     id="defs3414" />
  <metadata
     id="metadata3417">
    <rdf:RDF>
      <cc:Work
         rdf:about="">
        <dc:format>image/svg+xml</dc:format>
        <dc:type
           rdf:resource="http://purl.org/dc/dcmitype/StillImage" />
        <dc:title />
      </cc:Work>
    </rdf:RDF>
  </metadata>
  <g
     id="g4330">
    <path
       id="path4300"
       d="M 41.802447,198.35565 30.485712,204.99625 22.941222,224.91803 19.168977,244.83981 19.168977,264.76159 22.941222,278.04278 26.713467,284.68337 34.257957,291.32396 41.802447,291.32396 53.119182,284.68337 60.663672,264.76159 64.435917,244.83981 64.435917,224.91803 60.663672,211.63684 56.891427,204.99625 49.346937,198.35565 41.802447,198.35565 M 41.802447,198.35565 34.257957,204.99625 26.713467,224.91803 22.941222,244.83981 22.941222,271.40218 26.713467,284.68337 M 41.802447,291.32396 49.346937,284.68337 56.891427,264.76159 60.663672,244.83981 60.663672,218.27743 56.891427,204.99625"
       style="fill:none;stroke:#000000;stroke-width:5.00499201"
       inkscape:connector-curvature="0" />
    <path
       id="path4302"
       d="M 105.93061,151.8715 83.29714,291.32396 M 109.70286,151.8715 87.069385,291.32396 M 94.613875,244.83981 102.15837,218.27743 109.70286,204.99625 117.24734,198.35565 124.79183,198.35565 132.33632,204.99625 136.10857,211.63684 136.10857,224.91803 128.56408,264.76159 128.56408,284.68337 132.33632,291.32396 M 124.79183,198.35565 132.33632,211.63684 132.33632,224.91803 124.79183,264.76159 124.79183,284.68337 128.56408,291.32396 139.88081,291.32396 147.4253,278.04278 151.19755,264.76159 M 94.613875,151.8715 109.70286,151.8715"
       style="fill:none;stroke:#000000;stroke-width:5.00499201"
       inkscape:connector-curvature="0" />
    <path
       id="path4304"
       d="M 215.32572,198.35565 207.78123,244.83981 204.00898,271.40218 204.00898,284.68337 207.78123,291.32396 219.09796,291.32396 226.64245,278.04278 230.4147,264.76159 M 219.09796,198.35565 211.55347,244.83981 207.78123,271.40218 207.78123,284.68337 211.55347,291.32396 M 207.78123,244.83981 207.78123,224.91803 204.00898,204.99625 196.46449,198.35565 188.92,198.35565 177.60327,204.99625 170.05878,224.91803 166.28654,244.83981 166.28654,264.76159 170.05878,278.04278 173.83102,284.68337 181.37551,291.32396 188.92,291.32396 196.46449,284.68337 204.00898,264.76159 207.78123,244.83981 M 188.92,198.35565 181.37551,204.99625 173.83102,224.91803 170.05878,244.83981 170.05878,271.40218 173.83102,284.68337"
       style="fill:none;stroke:#000000;stroke-width:5.00499201"
       inkscape:connector-curvature="0" />
    <path
       id="path4306"
       d="M 268.13714,151.8715 264.3649,158.51209 268.13714,165.15268 271.90939,158.51209 268.13714,151.8715 M 237.95918,224.91803 241.73143,211.63684 249.27592,198.35565 260.59265,198.35565 264.3649,204.99625 264.3649,224.91803 256.82041,264.76159 256.82041,284.68337 260.59265,291.32396 M 256.82041,198.35565 260.59265,204.99625 260.59265,224.91803 253.04816,264.76159 253.04816,284.68337 256.82041,291.32396 268.13714,291.32396 275.68163,278.04278 279.45388,264.76159"
       style="fill:none;stroke:#000000;stroke-width:5.00499201"
       inkscape:connector-curvature="0" />
  </g>
</svg>
