<?xml version="1.0" encoding="UTF-8" standalone="no"?>
<!-- Created with Inkscape (http://www.inkscape.org/) -->

<svg
   xmlns:dc="http://purl.org/dc/elements/1.1/"
   xmlns:cc="http://creativecommons.org/ns#"
   xmlns:rdf="http://www.w3.org/1999/02/22-rdf-syntax-ns#"
   xmlns:svg="http://www.w3.org/2000/svg"
   xmlns="http://www.w3.org/2000/svg"
   xmlns:sodipodi="http://sodipodi.sourceforge.net/DTD/sodipodi-0.dtd"
   xmlns:inkscape="http://www.inkscape.org/namespaces/inkscape"
   inkscape:version="0.91 r13725"
   version="1.1"
   id="svg4336"
   viewBox="0 0 283.46457 336.61417"
   height="95mm"
   width="80mm"
   sodipodi:docname="helloRuF.svg">
  <sodipodi:namedview
     inkscape:window-maximized="1"
     inkscape:window-y="-4"
     inkscape:window-x="-4"
     inkscape:window-height="749"
     inkscape:window-width="1308"
     showgrid="false"
     inkscape:current-layer="svg4336"
     inkscape:document-units="mm"
     inkscape:cy="123.97494"
     inkscape:cx="187.85961"
     inkscape:zoom="6.3964574"
     inkscape:pageshadow="2"
     inkscape:pageopacity="0.0"
     borderopacity="1.0"
     bordercolor="#666666"
     pagecolor="#ffffff"
     id="base" />
  <defs
     id="defs4338" />
  <metadata
     id="metadata4341">
    <rdf:RDF>
      <cc:Work
         rdf:about="">
        <dc:format>image/svg+xml</dc:format>
        <dc:type
           rdf:resource="http://purl.org/dc/dcmitype/StillImage" />
        <dc:title></dc:title>
      </cc:Work>
    </rdf:RDF>
  </metadata>
  <g
     id="g4818">
    <path
       inkscape:connector-curvature="0"
       id="path4660"
       d="M 4.111052,257.11067 3.845411,228.58919 3.7099263,214.04234 3.579771,200.06772 3.4435153,185.43815 3.31413,171.54624 3.04849,143.02477 15.938675,142.73229 30.675086,142.39792 45.176291,142.06889 58.301681,141.77107 57.770401,171.23281 57.491722,186.6867 57.23912,200.69456 56.975671,215.3039 56.707839,230.15631 56.176558,259.61805"
       style="fill:none;fill-rule:evenodd;stroke:#000000;stroke-width:1.15417671px;stroke-linecap:butt;stroke-linejoin:miter;stroke-opacity:1"
       sodipodi:nodetypes="ccccccccccccccccc" />
    <path
       id="path4466"
       d="M 74.86813,173.55699 74.86813,206.1351 74.86813,222.42416 74.86813,238.71322 74.86813,271.29133 74.86813,303.86945 M 74.86813,192.17311 80.122605,179.76233 85.377095,173.55699 93.258815,173.55699 98.513285,179.76233 103.76778,192.17311 106.39502,210.78916 106.39502,223.19991 103.76778,241.81596 98.513285,254.22689 93.258815,260.43212 85.377095,260.43212 80.122605,254.22689 74.86813,241.81596"
       style="fill:none;stroke:#000000;stroke-width:4.03769541"
       inkscape:connector-curvature="0"
       sodipodi:nodetypes="cccccccccccccccccccc" />
    <path
       inkscape:connector-curvature="0"
       style="fill:none;stroke:#000000;stroke-width:3.15637064"
       d="M 153.13507,167.12394 153.13507,187.15644 153.13507,211.01798 153.13507,234.21373 153.13507,254.91203 M 153.13507,167.12394 145.06294,188.36303 136.4527,211.01798 119.77034,254.91203 M 119.77034,167.12394 119.77034,187.31277 119.77034,211.01798 119.77034,254.91203"
       id="path4518"
       sodipodi:nodetypes="ccccccccccccc" />
    <path
       id="path4470"
       d="M 172.0076,170.68176 172.0076,254.5967 M 172.0076,170.68176 192.38876,170.68176 199.18249,174.67769 201.44704,178.67364 203.71162,186.66554 203.71162,194.65743 201.44704,202.64935 199.18249,206.64528 179.60238,210.62889 179.51535,210.78863 M 172.0076,210.64124 188.94936,210.64124 199.18249,214.63721 201.44704,218.63312 203.71162,226.62505 203.71162,238.6129 201.44704,246.60479 199.18249,250.60076 192.38876,254.5967 172.0076,254.5967"
       style="fill:none;stroke:#000000;stroke-width:3.00817513"
       inkscape:connector-curvature="0"
       sodipodi:nodetypes="cccccccccccccccccccccc" />
    <path
       id="path4474"
       d="M 222.17105,206.95116 232.15752,207.3954 245.68593,207.03877 245.68593,194.8733 243.19464,182.70785 240.70336,176.62512 235.7208,170.54242 228.24693,170.54242 223.26437,176.62512 218.2818,188.7906 215.1514,205.97359 215.79051,219.20421 218.2818,237.45239 223.26437,249.61782 228.24693,255.70053 235.7208,255.70053 240.70336,249.61782 245.68593,237.45239"
       style="fill:none;stroke:#000000;stroke-width:3.89278769"
       inkscape:connector-curvature="0"
       sodipodi:nodetypes="cccccccccccccccccc" />
    <path
       id="path4478"
       d="M 275.13831,175.72363 275.13831,196.46554 275.13831,217.20746 275.13831,237.94937 275.13831,258.69129 M 254.21732,175.72363 266.3993,175.68398 282.65813,175.63107 300.88309,175.57176"
       style="fill:none;stroke:#000000;stroke-width:2.93879724"
       inkscape:connector-curvature="0"
       sodipodi:nodetypes="ccccccccc" />
  </g>
</svg>
