<?xml version="1.0" encoding="UTF-8" standalone="no"?>
<!-- Created with Inkscape (http://www.inkscape.org/) -->

<svg
   xmlns:dc="http://purl.org/dc/elements/1.1/"
   xmlns:cc="http://creativecommons.org/ns#"
   xmlns:rdf="http://www.w3.org/1999/02/22-rdf-syntax-ns#"
   xmlns:svg="http://www.w3.org/2000/svg"
   xmlns="http://www.w3.org/2000/svg"
   xmlns:sodipodi="http://sodipodi.sourceforge.net/DTD/sodipodi-0.dtd"
   xmlns:inkscape="http://www.inkscape.org/namespaces/inkscape"
   width="80mm"
   height="95mm"
   viewBox="0 0 283.46457 336.61417"
   id="svg3658"
   version="1.1"
   inkscape:version="0.91 r13725"
   sodipodi:docname="helloChF.svg">
  <defs
     id="defs3660" />
  <sodipodi:namedview
     id="base"
     pagecolor="#ffffff"
     bordercolor="#666666"
     borderopacity="1.0"
     inkscape:pageopacity="0.0"
     inkscape:pageshadow="2"
     inkscape:zoom="1.6517427"
     inkscape:cx="141.73228"
     inkscape:cy="168.30709"
     inkscape:document-units="mm"
     inkscape:current-layer="svg3658"
     showgrid="false"
     inkscape:window-width="1308"
     inkscape:window-height="749"
     inkscape:window-x="-4"
     inkscape:window-y="-4"
     inkscape:window-maximized="1"
     showguides="false">
    <sodipodi:guide
       position="44.122037,118.9958"
       orientation="-0.70710678,0.70710678"
       id="guide3383" />
  </sodipodi:namedview>
  <metadata
     id="metadata3663">
    <rdf:RDF>
      <cc:Work
         rdf:about="">
        <dc:format>image/svg+xml</dc:format>
        <dc:type
           rdf:resource="http://purl.org/dc/dcmitype/StillImage" />
        <dc:title />
      </cc:Work>
    </rdf:RDF>
  </metadata>
  <g
     id="g3544">
    <path
       sodipodi:nodetypes="ccssscssccsccssc"
       style="fill:none;fill-rule:evenodd;stroke:#000000;stroke-width:1.90083408px;stroke-linecap:butt;stroke-linejoin:miter;stroke-opacity:1"
       d="M 60.724345,179.04939 58.543781,185.12284 C 58.543781,185.52772 58.658708,185.95341 58.543781,186.33753 58.2868,187.19643 57.710481,187.90799 57.453499,188.76691 57.338573,189.15102 57.568425,189.59747 57.453499,189.98159 57.196518,190.84051 56.620198,191.55205 56.363217,192.41095 55.768552,194.08724 54.45993,199.57294 52.865689,205.4303 51.847471,209.17131 50.712743,213.06393 49.573103,216.21252 48.135322,220.18481 46.689722,222.97285 45.460393,222.77815 45.203412,223.06446 45.622924,223.63069 45.460393,223.99284 44.784831,225.08942 41.960361,227.25206 39.354164,229.72943 36.747967,232.2068 34.360042,234.9989 34.55757,237.35442 33.661207,238.20323 33.3877,238.79985 33.467288,239.7838 33.210307,240.0701 32.633988,239.49749 32.377006,239.7838 32.120025,240.0701 32.377006,240.59358 32.377006,240.99848 L 32.377006,242.21317"
       id="path3824"
       inkscape:connector-curvature="0" />
    <path
       sodipodi:nodetypes="cccccccc"
       style="fill:none;fill-rule:evenodd;stroke:#000000;stroke-width:1.90083408px;stroke-linecap:butt;stroke-linejoin:miter;stroke-opacity:1"
       d="M 50.911805,211.84596 50.911805,232.49566 50.911805,253.14536 50.911805,273.79507 50.911805,278.95749 50.911805,284.11992 50.911805,289.28235 50.911805,294.44477"
       id="path3826"
       inkscape:connector-curvature="0" />
    <path
       sodipodi:nodetypes="cscccsccssssc"
       style="fill:none;fill-rule:evenodd;stroke:#000000;stroke-width:1.93275917px;stroke-linecap:butt;stroke-linejoin:miter;stroke-opacity:1"
       d="M 91.296936,182.06325 C 92.468957,187.29813 92.086634,191.13429 91.338855,194.64396 90.472958,198.70801 89.117032,202.33426 89.117032,207.18751 89.117032,207.60625 89.279513,208.06919 89.117032,208.44373 87.500792,209.86466 88.14393,211.55033 88.02708,213.46858 87.340582,216.82958 86.405833,218.58176 85.375643,219.66762 83.754049,221.37685 81.895982,221.43512 80.397415,223.51829 L 77.127561,227.28692 74.947656,229.79934 C 74.584338,230.21808 74.020183,230.49377 73.857703,231.05555 73.627921,231.85006 74.087486,232.77348 73.857703,233.56799 73.776569,233.84853 71.834246,235.71979 71.6778,236.08041 71.515318,236.45494 71.6778,236.91788 71.6778,237.33662"
       id="path3832"
       inkscape:connector-curvature="0" />
    <path
       style="fill:none;fill-rule:evenodd;stroke:#000000;stroke-width:1.93275917px;stroke-linecap:butt;stroke-linejoin:miter;stroke-opacity:1"
       d="M 92.386891,212.21238 107.33065,212.21238 120.72565,212.21238 126.17541,212.21238 127.26537,212.21238 C 127.62867,212.21238 128.03035,212.39964 128.3553,212.21238 130.30087,210.22331 131.78918,209.69994 134.89502,209.69994 135.25833,209.69994 135.66001,209.88719 135.98498,209.69994 136.76013,208.79409 136.99476,208.3097 138.16488,208.44373 L 140.34477,208.44373 C 140.7081,208.44373 141.10977,208.63098 141.43472,208.44373 141.89429,208.17889 142.16137,207.60625 142.5247,207.18751"
       id="path3834"
       inkscape:connector-curvature="0"
       sodipodi:nodetypes="ccccsccccscc" />
    <path
       sodipodi:nodetypes="cccccsc"
       style="fill:none;fill-rule:evenodd;stroke:#000000;stroke-width:1.93275917px;stroke-linecap:butt;stroke-linejoin:miter;stroke-opacity:1"
       d="M 141.43472,204.67509 C 141.07142,206.76876 140.7081,208.86247 140.34477,210.95614 138.58239,212.58386 139.25483,214.80983 139.25483,217.23721 139.50812,218.42853 138.84427,219.07311 138.16488,219.74963 137.11209,222.05899 137.12286,225.06849 134.89502,227.28692 134.73255,227.66145 134.89502,228.12439 134.89502,228.54313 L 134.89502,229.79934"
       id="path3836"
       inkscape:connector-curvature="0" />
    <path
       sodipodi:nodetypes="ccccccccsssc"
       style="fill:none;fill-rule:evenodd;stroke:#000000;stroke-width:1.93275917px;stroke-linecap:butt;stroke-linejoin:miter;stroke-opacity:1"
       d="M 112.00602,221.00584 112.00602,234.42169 112.00602,250.63547 112.00602,262.8529 112.00602,276.27923 112.00602,286.32897 112.00602,287.58517 C 111.7057,290.16927 105.86219,289.81017 103.28641,291.35377 102.58147,291.55687 101.83314,291.35377 101.10651,291.35377 L 95.656736,291.35377 C 95.293428,291.35377 94.823698,291.64987 94.566791,291.35377 94.309885,291.05767 94.566791,290.51627 94.566791,290.09757"
       id="path3840"
       inkscape:connector-curvature="0" />
    <path
       sodipodi:nodetypes="cssccsssssc"
       style="fill:none;fill-rule:evenodd;stroke:#000000;stroke-width:1.93275917px;stroke-linecap:butt;stroke-linejoin:miter;stroke-opacity:1"
       d="M 77.127561,249.89876 C 76.764241,251.99244 76.299598,254.06613 76.037607,256.17983 75.934846,257.00887 76.037607,257.85476 76.037607,258.69225 76.037607,259.11099 76.152498,259.55121 76.037607,259.94846 74.545302,265.41912 71.901751,275.39906 68.407943,278.79166 L 67.31799,280.04787 C 66.954674,280.46662 66.457822,280.77441 66.228039,281.30408 66.065558,281.67861 66.390519,282.18576 66.228039,282.56029 65.998257,283.08996 65.367869,283.28683 65.138087,283.8165 64.975606,284.19103 65.394991,284.77657 65.138087,285.07267 63.684817,286.74767 64.048134,282.97904 64.048134,286.32897"
       id="path3842"
       inkscape:connector-curvature="0" />
    <path
       sodipodi:nodetypes="csssc"
       style="fill:none;fill-rule:evenodd;stroke:#000000;stroke-width:1.93275917px;stroke-linecap:butt;stroke-linejoin:miter;stroke-opacity:1"
       d="M 134.97783,254.92362 C 134.30025,257.84637 134.5218,260.39018 135.3351,262.67935 136.14838,264.96854 137.55342,267.00309 139.24282,268.90734 140.93222,270.81159 142.90599,272.58554 144.85674,274.35351 146.8075,276.12149 148.73524,277.88348 150.33258,279.76383"
       id="path3852"
       inkscape:connector-curvature="0" />
    <path
       sodipodi:nodetypes="ccccccscccsssc"
       style="fill:none;fill-rule:evenodd;stroke:#000000;stroke-width:1.9008342px;stroke-linecap:butt;stroke-linejoin:miter;stroke-opacity:1"
       d="M 199.86559,176.01467 198.7753,180.87342 C 199.4867,183.70418 197.13944,185.95347 196.59474,188.16155 196.91674,190.08478 196.12783,191.47276 195.50445,193.02028 195.15189,194.59152 195.85703,196.30782 195.50445,197.87905 195.30737,198.7574 194.61129,199.43009 194.41419,200.30842 194.40113,203.70849 193.53696,207.42771 192.43853,210.76255 190.64977,216.19327 188.23976,220.60459 187.87248,220.95812 185.88162,227.36282 185.65532,236.66426 181.3308,241.60781 181.16827,241.96995 181.58778,242.53618 181.3308,242.8225 183.5236,243.11564 186.38348,244.07813 189.61086,245.44772 194.11129,247.35755 199.32631,250.05899 204.44354,252.84093 208.99999,255.31801 216.9102,259.94055 224.04211,264.04769 230.6638,267.86101 236.61456,271.23004 238.5872,272.02511"
       id="path3856"
       inkscape:connector-curvature="0" />
    <path
       style="fill:none;fill-rule:evenodd;stroke:#000000;stroke-width:1.9008342px;stroke-linecap:butt;stroke-linejoin:miter;stroke-opacity:1"
       d="M 170.42796,191.8056 186.45846,191.8056 198.33625,191.8056 214.77548,191.8056 226.24454,191.8056"
       id="path3858"
       inkscape:connector-curvature="0"
       sodipodi:nodetypes="ccccc" />
    <path
       sodipodi:nodetypes="cccscscsccccccsccc"
       style="fill:none;fill-rule:evenodd;stroke:#000000;stroke-width:1.9008342px;stroke-linecap:butt;stroke-linejoin:miter;stroke-opacity:1"
       d="M 223.8518,191.8056 C 222.90149,194.93994 224.42199,198.34685 223.8518,201.52311 222.92682,203.21283 222.64707,204.56999 222.76152,206.38187 222.39809,207.19166 221.92823,207.95231 221.67123,208.81124 221.5563,209.19536 221.83377,209.66378 221.67123,210.02593 219.69047,214.75724 218.21481,219.30051 216.99384,224.18611 215.85517,228.74242 214.93801,233.59647 214.03926,239.17845 213.87988,240.06623 213.25079,240.76719 212.94898,241.60781 212.52215,242.79663 212.37266,244.10666 211.85869,245.25186 211.62886,245.76404 210.93094,245.92334 210.76842,246.46657 211.03822,248.921 210.29893,249.24162 208.58786,250.11063 208.4925,251.81451 208.74332,252.6452 207.49756,253.75469 205.97652,256.86987 204.32254,259.74589 202.04615,262.2575 201.68273,262.6624 201.24097,262.99576 200.95588,263.47219 200.16692,267.20964 196.12527,271.57526 192.55763,275.49739 189.40227,278.96627 186.6177,282.08824 186.7822,284.12188 186.52522,284.40817 186.01697,283.94081 185.69191,284.12188 185.23221,284.37797 184.96507,284.93167 184.60164,285.33657"
       id="path3860"
       inkscape:connector-curvature="0" />
    <path
       sodipodi:nodetypes="cscscccc"
       style="fill:none;fill-rule:evenodd;stroke:#000000;stroke-width:1.9008342px;stroke-linecap:butt;stroke-linejoin:miter;stroke-opacity:1"
       d="M 240.01758,189.07215 253.10096,189.07215 C 254.19125,189.07215 255.29636,189.27183 256.37182,189.07215 259.2854,188.0314 262.38465,187.73836 265.58327,187.7 268.62591,187.6635 271.75845,187.85744 274.90662,187.85744 L 282.53859,187.85744 C 284.72287,188.59513 286.05387,186.48933 287.98999,186.64276 L 290.17057,186.64276"
       id="path3862"
       inkscape:connector-curvature="0" />
    <path
       sodipodi:nodetypes="csscccc"
       style="fill:none;fill-rule:evenodd;stroke:#000000;stroke-width:1.9008342px;stroke-linecap:butt;stroke-linejoin:miter;stroke-opacity:1"
       d="M 290.17057,186.64276 C 288.82851,188.13796 287.48644,189.63316 286.14437,191.12836 284.21558,193.27723 282.2868,195.42608 280.35803,197.57494 279.63118,198.38474 278.9043,199.19452 278.17746,200.00433 276.005,202.41739 275.18155,205.74299 273.81632,208.50714 270.86431,210.47194 271.6665,213.71968 269.4552,215.79527 269.09176,216.20017 268.72836,216.60507 268.36492,217.00995"
       id="path3864"
       inkscape:connector-curvature="0" />
    <path
       sodipodi:nodetypes="cccscccccc"
       style="fill:none;fill-rule:evenodd;stroke:#000000;stroke-width:1.9008342px;stroke-linecap:butt;stroke-linejoin:miter;stroke-opacity:1"
       d="M 267.27464,215.79527 267.27464,228.37007 267.27464,244.94777 267.27464,251.02122 C 267.27464,251.831 267.04478,252.68237 267.27464,253.4506 267.96842,252.84203 269.27649,267.34516 269.4552,274.10028 270.05497,278.98375 269.78011,288.24927 265.09406,287.46187 L 264.00379,287.46187 C 261.28168,287.46177 260.03568,288.25867 255.65795,285.73737 251.47088,280.76342 242.27482,274.14095 246.36145,277.20064"
       id="path3866"
       inkscape:connector-curvature="0" />
    <path
       sodipodi:nodetypes="cscccssc"
       style="fill:none;fill-rule:evenodd;stroke:#000000;stroke-width:1.9008342px;stroke-linecap:butt;stroke-linejoin:miter;stroke-opacity:1"
       d="M 236.74672,238.87433 C 240.02375,238.45683 244.95532,235.10265 255.74227,233.56549 259.01009,233.09982 262.81529,232.8009 267.27464,232.8009 L 281.4483,232.8009 292.35113,232.8009 295.62198,232.8009 C 295.98539,232.8009 296.71227,232.396 296.71227,232.8009 296.71227,233.2058 295.98539,232.8009 295.62198,232.8009"
       id="path3870"
       inkscape:connector-curvature="0" />
  </g>
</svg>
