<?xml version="1.0" encoding="UTF-8" standalone="no"?>
<!-- Created with Inkscape (http://www.inkscape.org/) -->

<svg
   xmlns:dc="http://purl.org/dc/elements/1.1/"
   xmlns:cc="http://creativecommons.org/ns#"
   xmlns:rdf="http://www.w3.org/1999/02/22-rdf-syntax-ns#"
   xmlns:svg="http://www.w3.org/2000/svg"
   xmlns="http://www.w3.org/2000/svg"
   xmlns:sodipodi="http://sodipodi.sourceforge.net/DTD/sodipodi-0.dtd"
   xmlns:inkscape="http://www.inkscape.org/namespaces/inkscape"
   width="80mm"
   height="95mm"
   viewBox="0 0 283.46457 336.61417"
   id="svg3515"
   version="1.1"
   inkscape:version="0.91 r13725"
   sodipodi:docname="helloFrF.svg">
  <sodipodi:namedview
     id="base"
     pagecolor="#ffffff"
     bordercolor="#666666"
     borderopacity="1.0"
     inkscape:pageopacity="0.0"
     inkscape:pageshadow="2"
     inkscape:zoom="1.6421381"
     inkscape:cx="35.163898"
     inkscape:cy="168.30709"
     inkscape:document-units="px"
     inkscape:current-layer="layer1"
     showgrid="false"
     inkscape:window-width="1308"
     inkscape:window-height="749"
     inkscape:window-x="-4"
     inkscape:window-y="-4"
     inkscape:window-maximized="1" />
  <defs
     id="defs3517" />
  <metadata
     id="metadata3520">
    <rdf:RDF>
      <cc:Work
         rdf:about="">
        <dc:format>image/svg+xml</dc:format>
        <dc:type
           rdf:resource="http://purl.org/dc/dcmitype/StillImage" />
        <dc:title />
      </cc:Work>
    </rdf:RDF>
  </metadata>
  <g
     id="layer1"
     inkscape:groupmode="layer"
     inkscape:label="Layer 1">
    <g
       id="g4379">
      <path
         sodipodi:nodetypes="cccccccccccccccccccccc"
         id="path3530"
         d="M 9.9367959,242.3066 16.207531,226.99064 25.613635,201.46402 28.749004,191.25336 31.884371,175.93742 31.884371,165.72675 28.749004,160.62144 22.478267,165.72675 19.3429,175.93742 16.207531,196.35868 13.072164,232.09595 13.072164,262.7279 16.207531,267.83323 19.3429,267.83323 25.613635,262.7279 31.884371,252.51726 35.019739,237.20129 17.359835,227.36598 38.155107,242.3066 41.290476,247.41194 47.561211,247.41194 53.831947,242.3066"
         style="fill:none;stroke:#000000;stroke-width:4.00088358"
         inkscape:connector-curvature="0" />
      <path
         sodipodi:nodetypes="cccccccccccccccccccccc"
         id="path3532"
         d="M 72.644156,221.88532 66.37342,221.88532 60.102683,226.99064 56.967315,232.09595 53.831947,242.3066 53.831947,252.51726 56.967315,262.7279 63.238052,267.83323 69.508787,267.83323 75.779524,262.7279 78.914892,257.6226 82.05026,247.41194 82.05026,237.20129 78.914892,226.99064 72.644156,221.88532 69.508787,226.99064 69.508787,237.20129 72.644156,247.41194 78.914892,252.51726 88.320995,252.51726 94.59173,247.41194 97.727099,242.3066"
         style="fill:none;stroke:#000000;stroke-width:4.00088358"
         inkscape:connector-curvature="0" />
      <path
         sodipodi:nodetypes="ccccccccccccccccccccc"
         id="path3534"
         d="M 97.727098,242.3066 103.99783,226.99064 110.26857,221.88532 113.40393,226.99064 113.40393,232.09595 110.26857,252.51726 107.1332,267.83323 M 110.26857,252.51726 113.40393,242.3066 119.67467,226.99064 125.94541,221.88532 132.21615,221.88532 135.3515,226.99064 135.3515,237.20129 132.21615,252.51726 132.21615,262.7279 135.3515,267.83323 138.48687,267.83323 144.75761,262.7279 147.89298,257.6226 154.16372,242.3066"
         style="fill:none;stroke:#000000;stroke-width:4.00088358"
         inkscape:connector-curvature="0" />
      <path
         sodipodi:nodetypes="cccccccccccccccccc"
         id="path3536"
         d="M 163.56983,196.35868 163.56983,201.46402 166.70519,201.46402 166.70519,196.35868 163.56983,196.35868 M 154.16371,242.3066 160.43445,221.88532 141.62225,313.78113 138.48687,323.99179 132.21614,329.09711 129.08077,323.99179 129.08077,313.78113 132.21614,298.46516 141.62225,283.1492 151.02833,272.93854 157.29909,267.83323 166.70519,257.6226 176.11129,242.3066"
         style="fill:none;stroke:#000000;stroke-width:4.00088358"
         inkscape:connector-curvature="0" />
      <path
         sodipodi:nodetypes="cccccccccccccccccccccc"
         id="path3538"
         d="M 194.9235,221.88532 188.65277,221.88532 182.38203,226.99064 179.24667,232.09595 176.1113,242.3066 176.1113,252.51726 179.24667,262.7279 185.51739,267.83323 191.78813,267.83323 198.05888,262.7279 201.19425,257.6226 204.32961,247.41194 204.32961,237.20129 201.19425,226.99064 194.9235,221.88532 191.78813,226.99064 191.78813,237.20129 194.9235,247.41194 201.19425,252.51726 210.60034,252.51726 216.87108,247.41194 220.00644,242.3066"
         style="fill:none;stroke:#000000;stroke-width:4.00088358"
         inkscape:connector-curvature="0" />
      <path
         sodipodi:nodetypes="ccccccccccccccccc"
         id="path3540"
         d="M 220.00644,242.3066 226.27719,221.88532 220.00644,252.51726 220.00644,262.7279 223.14182,267.83323 229.41254,267.83323 235.68328,262.7279 241.95403,252.51726 248.22477,237.20129 M 251.36012,221.88532 245.0894,252.51726 245.0894,262.7279 248.22477,267.83323 251.36012,267.83323 257.63087,262.7279 260.76623,257.6226 267.03697,242.3066"
         style="fill:none;stroke:#000000;stroke-width:4.00088358"
         inkscape:connector-curvature="0" />
      <path
         sodipodi:nodetypes="cccccccccccccc"
         id="path3542"
         d="M 267.03697,242.3066 273.3077,226.99064 276.44306,216.77999 276.44306,226.99064 285.84917,226.99064 288.98455,232.09595 288.98455,242.3066 285.84917,257.6226 285.84917,262.7279 288.98455,267.83323 292.11992,267.83323 298.39063,262.7279 301.52601,257.6226 307.79674,242.3066"
         style="fill:none;stroke:#000000;stroke-width:4.00088358"
         inkscape:connector-curvature="0" />
    </g>
  </g>
</svg>
