<?xml version="1.0" encoding="UTF-8" standalone="no"?>
<!-- Created with Inkscape (http://www.inkscape.org/) -->

<svg
   xmlns:dc="http://purl.org/dc/elements/1.1/"
   xmlns:cc="http://creativecommons.org/ns#"
   xmlns:rdf="http://www.w3.org/1999/02/22-rdf-syntax-ns#"
   xmlns:svg="http://www.w3.org/2000/svg"
   xmlns="http://www.w3.org/2000/svg"
   xmlns:sodipodi="http://sodipodi.sourceforge.net/DTD/sodipodi-0.dtd"
   xmlns:inkscape="http://www.inkscape.org/namespaces/inkscape"
   width="80mm"
   height="95mm"
   viewBox="0 0 283.46457 336.61417"
   id="svg2"
   version="1.1"
   inkscape:version="0.91 r13725"
   sodipodi:docname="helloJp.svg">
  <defs
     id="defs4" />
  <sodipodi:namedview
     id="base"
     pagecolor="#ffffff"
     bordercolor="#666666"
     borderopacity="1.0"
     inkscape:pageopacity="0.0"
     inkscape:pageshadow="2"
     inkscape:zoom="0.66161843"
     inkscape:cx="-29.836344"
     inkscape:cy="67.010754"
     inkscape:document-units="mm"
     inkscape:current-layer="svg2"
     showgrid="false"
     inkscape:window-width="1308"
     inkscape:window-height="749"
     inkscape:window-x="-4"
     inkscape:window-y="-4"
     inkscape:window-maximized="1" />
  <metadata
     id="metadata7">
    <rdf:RDF>
      <cc:Work
         rdf:about="">
        <dc:format>image/svg+xml</dc:format>
        <dc:type
           rdf:resource="http://purl.org/dc/dcmitype/StillImage" />
        <dc:title></dc:title>
      </cc:Work>
    </rdf:RDF>
  </metadata>
  <g
     id="g3555">
    <path
       id="path3426"
       d="M -2.9318462,197.54216 C 0.2671778,197.71883 3.4471388,197.60399 6.6324188,197.26822 10.726748,196.69917 14.819723,196.20824 18.938694,195.91939 22.616158,195.69937 26.298171,195.5954 29.980004,195.53738 32.103047,195.43683 34.136685,195.74255 35.602765,197.61262 36.816573,199.66609 36.554708,201.7353 35.516134,203.77894 34.004034,205.61972 32.256954,207.18118 30.638605,208.90062 30.638605,208.90062 18.544452,214.65219 18.544452,214.65219"
       inkscape:connector-curvature="0" />
    <path
       id="path3432"
       d="M -1.3826482,230.17311 C -1.7633252,234.57126 -2.0265772,238.978 -2.1877352,243.39353 -2.2066142,247.07556 -2.5790352,250.79892 -2.0023612,254.44307 -1.6754342,256.57542 -0.8188782,258.2517 0.6300058,259.59861 2.0177748,261.05248 3.7664948,261.32023 5.5601478,261.52045 8.2323188,261.72866 10.913108,261.69919 13.589843,261.69955 16.267102,261.70776 18.944153,261.66024 21.621374,261.65877 23.063334,261.54401 24.556375,261.88101 25.97471,261.45979 26.609574,261.27125 27.210803,260.95633 27.830548,260.7102 28.140901,260.60316 28.451255,260.49612 28.76161,260.38907 28.76161,260.38907 18.403429,269.58266 18.403429,269.58266"
       inkscape:connector-curvature="0" />
    <path
       id="path3434"
       d="M 55.292823,198.51325 C 55.160272,202.97378 54.803496,207.41992 54.330399,211.84814 53.972945,215.90665 53.56862,219.95506 53.138646,224.00421 52.843833,228.17226 52.415828,232.32517 52.074359,236.48845 51.826547,239.44506 51.299321,242.33949 50.6827,245.21732 50.233454,247.21691 50.086161,249.27248 50.008136,251.32787 49.816783,253.37465 49.454865,255.3894 49.27016,257.43857 49.2048,259.15614 49.082008,260.85716 48.90481,262.56185 42.781304,265.67361 37.253999,273.83034 36.72891,267.6218 36.589433,265.97267 36.894221,264.37205 37.235463,262.78443 37.85101,260.51029 38.570217,258.28307 39.482079,256.14425 40.407074,254.21933 41.440209,252.36359 42.448331,250.49218 43.65601,248.49594 44.814037,246.4961 46.410501,244.8835 50.73519,240.90382 56.00129,238.18784 60.717021,235.12696 64.026157,232.97906 54.129862,239.48564 50.819002,241.63001 50.455319,241.86556 51.843679,240.89122 53.448072,239.76246 59.385837,235.69354 65.175788,231.03888 71.84477,228.74552 74.453188,228.37459 75.471967,229.64394 76.143533,232.36923 76.593637,235.51758 76.534167,238.72576 76.531377,241.90614 76.530085,244.72198 76.628353,247.52953 76.313455,250.32685 75.959352,252.8865 75.79978,255.47011 75.708014,258.05716 75.736417,260.09118 75.408071,262.19406 75.915794,264.17179 76.635957,265.6048 78.151486,265.60251 79.437018,265.70616 80.336513,265.83424 81.174731,265.58844 82.004587,265.1998 82.337963,265.04368 83.293663,264.4645 82.981053,264.66962 71.8937,271.94478 69.652301,274.04563 73.615701,270.48215 75.551595,268.33376 77.025083,265.74369 78.308014,263.04565 78.308014,263.04565 90.181943,256.90422 90.181943,256.90422" inkscape:connector-curvature="0" />
    <path
       id="path3436"
       d="M 111.96829,199.40329 C 111.7916,204.32596 111.14326,209.21599 110.57011,214.09537 109.71004,220.36863 109.41203,226.70872 109.20913,233.04642 109.25903,238.90569 109.42033,244.98394 111.07467,250.59567 111.34334,251.50704 111.715,252.37396 112.03516,253.2631 113.34253,256.52332 115.47065,259.08355 117.67892,261.54922 117.67892,261.54922 106.76568,269.25313 106.76568,269.25313"
       inkscape:connector-curvature="0" />
    <path
       id="path3438"
       d="M 128.99397,205.67963 C 132.23752,205.77545 135.48319,205.75552 138.72756,205.73695 141.0709,205.71914 143.41425,205.70255 145.75763,205.69428 147.54762,205.68902 149.33762,205.68898 151.12761,205.68883 152.89069,205.68886 154.65378,205.68906 156.41686,205.68915 157.89176,205.68923 159.36665,205.68925 160.84154,205.68926 160.84154,205.68926 150.23872,214.53917 150.23872,214.53917"
       inkscape:connector-curvature="0" />
    <path
       id="path3440"
       d="M 134.80585,234.1797 C 133.68664,236.53383 133.06016,239.11351 132.64782,241.73713 132.20772,243.94124 132.47807,245.90478 133.21108,247.96001 134.03654,249.77572 135.26376,251.14154 136.56957,252.49059 138.0405,253.88449 139.74264,254.81657 141.49389,255.64188 143.20016,256.21208 144.85348,256.89532 146.6106,257.24728 148.62727,257.5432 150.66342,257.56636 152.69332,257.58338 154.22806,257.58839 155.76279,257.57968 157.29752,257.57441 157.29752,257.57441 146.69813,266.42542 146.69813,266.42542"
       inkscape:connector-curvature="0" />
    <path
       id="path3442"
       d="M 182.8633,193.20554 C 183.34797,196.58383 183.87012,199.9522 184.22604,203.35265 184.46941,205.75515 184.53489,208.17315 184.56317,210.58941 184.57688,212.62753 184.56853,214.66575 184.56477,216.7039 184.561,218.73241 184.55999,220.76092 184.55936,222.78943 184.5589,224.82337 184.55897,226.8573 184.55899,228.89124 184.55901,230.92567 184.55904,232.96011 184.55905,234.99454 184.62716,237.0613 185.64406,236.93718 187.15047,237.14737 188.93537,237.17918 190.83958,236.86187 192.55772,236.26506 194.32284,235.62425 196.15895,235.39075 197.99747,235.25925 199.95176,235.15959 201.909,235.1856 203.86472,235.18442 205.69928,234.96578 207.28724,235.44686 208.91619,236.33502 210.12396,237.26028 210.77525,238.72197 211.51946,240.0903 212.17536,241.42031 212.66561,242.85156 213.30691,244.18904 214.11401,245.74531 214.37646,247.50759 214.54272,249.27938 214.81402,251.38674 214.2574,253.24789 213.33049,255.02932 212.58233,256.13751 211.66055,257.13575 210.59487,257.8379 198.56987,265.7608 202.96499,264.28654 197.62889,265.96621 196.18603,266.90858 194.57867,267.18742 192.95269,267.34643 191.2206,267.46777 189.4841,267.45265 187.74962,267.44976 185.96074,267.37865 184.15499,267.61259 182.38956,267.24045 180.4932,266.8983 178.79721,265.81431 176.99498,265.11608 175.84729,264.77463 176.42309,264.92184 175.26779,264.67329 175.26779,264.67329 186.03331,256.09523 186.03331,256.09523"
       inkscape:connector-curvature="0" />
    <path
       id="path3444"
       d="M 173.98711,208.50268 C 176.22617,208.15788 178.47699,207.94745 180.73252,207.81808 182.83393,207.71655 184.93791,207.73121 187.04073,207.72556 188.93075,207.72197 190.82076,207.72272 192.71078,207.72299 194.48527,207.72332 196.25976,207.72348 198.03426,207.72357 199.80345,207.72363 201.57263,207.72363 203.34182,207.72363 205.11248,207.72363 206.88313,207.72363 208.65379,207.72363 208.94893,207.72363 209.24406,207.72363 209.5392,207.72363 209.5392,207.72363 198.93639,216.57353 198.93639,216.57353"
       inkscape:connector-curvature="0" />
    <path
       id="path3446"
       d="M 239.13825,196.22343 C 238.29672,199.13932 237.91457,202.14457 237.40556,205.12634 236.916,207.38282 236.54501,209.656 236.35676,211.95698 236.37084,214.00623 235.98414,216.0079 235.66742,218.02207 235.28549,220.90902 235.25031,223.82612 235.20222,226.73329 235.17148,229.80644 235.19872,232.87953 235.22484,235.95258 235.23704,238.00081 235.16507,240.03651 235.48025,242.06394 235.80011,244.34105 236.62778,246.49666 237.21315,248.70936 237.95267,251.42819 238.75536,254.13116 239.94578,256.69056 240.77266,258.69474 242.00515,260.43574 243.56741,261.92557 244.5074,262.76277 244.04828,262.31911 244.94141,263.26001 244.94141,263.26001 232.5475,270.82408 232.5475,270.82408"
       inkscape:connector-curvature="0" />
    <path
       id="path3464"
       d="M 282.39862,194.18594 C 282.67812,197.66956 282.95444,201.1526 283.13516,204.6451 283.26044,207.20118 283.28694,209.7614 283.29924,212.32086 283.28622,214.72498 283.24135,217.111 283.51533,219.49782 283.87007,221.94441 284.07976,224.4101 284.19483,226.88541 284.28066,229.16273 284.28067,231.44272 284.28311,233.72171 284.28269,235.97343 284.27957,238.22515 284.278,240.47688 284.27661,242.72982 284.27643,244.98277 284.27629,247.23572 284.24691,249.47588 284.34355,251.72015 284.2126,253.95647 283.98119,255.98103 283.36719,257.90279 282.21107,259.46069 277.74467,264.90893 271.62643,269.29575 265.09326,269.60502 262.90455,269.68998 260.71416,269.67329 258.52459,269.66521 256.43462,269.38292 254.76468,268.17382 253.42936,266.36309 252.34502,264.40363 251.71323,262.15635 251.2546,259.90822 250.87231,257.59914 250.72019,255.23908 250.83471,252.89344 250.94754,250.76876 251.68893,248.91879 252.66146,247.1548 256.43602,242.05748 253.09501,246.41521 266.26314,237.70327 267.3125,237.00902 268.55103,236.75536 269.72399,236.5135 271.66365,236.09289 273.66017,236.40489 275.58524,235.95038 277.55662,235.51603 279.56067,235.04336 281.56475,235.34509 283.84464,235.62392 285.76161,237.19296 287.64126,238.58364 290.14389,240.56965 292.27616,243.06455 294.29894,245.65342 295.87451,247.62184 297.5253,249.45967 299.44649,250.97451 300.27633,251.81011 299.86168,251.43293 300.68278,252.11714 300.68278,252.11714 288.37514,261.04589 288.37514,261.04589"
       inkscape:connector-curvature="0" />
    <path
       id="path3470"
       d="M 292.67608,217.8277 C 289.86204,217.76324 287.04686,217.78168 284.23236,217.78655 281.87166,217.93374 279.46108,217.52936 277.12857,218.0216 275.16038,218.5167 273.15803,218.73972 271.14994,218.86335 269.17238,218.8476 267.26206,218.94767 265.32564,219.3827 263.43974,219.96102 261.42265,219.64389 259.56261,220.26709 257.88629,220.87863 256.13174,221.02921 254.38685,221.13267 252.45729,221.21674 250.52587,221.20858 248.59527,221.20767 248.59527,221.20767 260.33439,211.40199 260.33439,211.40199"
       inkscape:connector-curvature="0" />
  </g>
</svg>
