<?xml version="1.0" encoding="UTF-8" standalone="no"?>
<!-- Created with Inkscape (http://www.inkscape.org/) -->

<svg
   xmlns:dc="http://purl.org/dc/elements/1.1/"
   xmlns:cc="http://creativecommons.org/ns#"
   xmlns:rdf="http://www.w3.org/1999/02/22-rdf-syntax-ns#"
   xmlns:svg="http://www.w3.org/2000/svg"
   xmlns="http://www.w3.org/2000/svg"
   xmlns:sodipodi="http://sodipodi.sourceforge.net/DTD/sodipodi-0.dtd"
   xmlns:inkscape="http://www.inkscape.org/namespaces/inkscape"
   width="80mm"
   height="95mm"
   viewBox="0 0 283.46456 336.61417"
   id="svg3379"
   version="1.1"
   inkscape:version="0.91 r13725"
   sodipodi:docname="helloEnT.svg">
  <sodipodi:namedview
     id="base"
     pagecolor="#ffffff"
     bordercolor="#666666"
     borderopacity="1.0"
     inkscape:pageopacity="0.0"
     inkscape:pageshadow="2"
     inkscape:zoom="1.88"
     inkscape:cx="335.22851"
     inkscape:cy="167.30709"
     inkscape:document-units="px"
     inkscape:current-layer="svg3379"
     showgrid="true"
     inkscape:window-width="1308"
     inkscape:window-height="749"
     inkscape:window-x="-4"
     inkscape:window-y="-4"
     inkscape:window-maximized="1"
     units="mm"
     showguides="true">
    <inkscape:grid
       id="grid5092"
       type="xygrid" />
  </sodipodi:namedview>
  <defs
     id="defs3381" />
  <metadata
     id="metadata3384">
    <rdf:RDF>
      <cc:Work
         rdf:about="">
        <dc:format>image/svg+xml</dc:format>
        <dc:type
           rdf:resource="http://purl.org/dc/dcmitype/StillImage" />
        <dc:title />
      </cc:Work>
    </rdf:RDF>
  </metadata>
  <g
     id="g3356">
    <path
       inkscape:connector-curvature="0"
       style="fill:none;stroke:#000000;stroke-width:5.43300867"
       d="M 7.3732638,266.95503 17.528712,249.51558 32.761884,220.44982 37.839608,208.82352 42.917332,191.38407 42.917332,179.75776 37.839608,173.94461 27.684159,179.75776 22.606435,191.38407 17.528712,214.63667 12.450987,249.51558 7.3732638,296.02078 M 7.3732638,296.02078 12.450987,278.58133 17.528712,266.95503 27.684159,249.51558 37.839608,243.70243 47.995056,243.70243 53.07278,249.51558 53.07278,261.14188 47.995056,278.58133 47.995056,290.20764 53.07278,296.02078 58.150505,296.02078 68.305954,290.20764 73.383678,284.39449 83.539126,266.95503"
       id="path6418" />
    <path
       inkscape:connector-curvature="0"
       style="fill:none;stroke:#000000;stroke-width:5.43300867"
       d="M 88.61685,284.39449 98.7723,278.58133 103.85002,272.76818 108.92775,261.14188 108.92775,249.51558 103.85002,243.70243 98.7723,243.70243 88.61685,249.51558 83.539126,261.14188 83.539126,278.58133 88.61685,290.20764 98.7723,296.02078 108.92775,296.02078 119.0832,290.20764 124.16093,284.39449 134.31636,266.95503"
       id="path6420" />
    <path
       inkscape:connector-curvature="0"
       style="fill:none;stroke:#000000;stroke-width:5.43300867"
       d="M 134.31636,266.95503 144.47181,249.51558 159.70499,220.44982 164.7827,208.82352 169.86043,191.38407 169.86043,179.75776 164.7827,173.94461 154.62727,179.75776 149.54954,191.38407 144.47181,214.63667 139.39409,255.32873 139.39409,290.20764 144.47181,296.02078 149.54954,296.02078 159.70499,290.20764 164.7827,284.39449 174.93816,266.95503"
       id="path6422" />
    <path
       inkscape:connector-curvature="0"
       style="fill:none;stroke:#000000;stroke-width:5.43300867"
       d="M 174.93816,266.95503 185.09361,249.51558 200.32677,220.44982 205.4045,208.82352 210.48224,191.38407 210.48224,179.75776 205.4045,173.94461 195.24906,179.75776 190.17133,191.38407 185.09361,214.63667 180.01589,255.32873 180.01589,290.20764 185.09361,296.02078 190.17133,296.02078 200.32677,290.20764 205.4045,284.39449 215.55996,266.95503"
       id="path6424" />
    <path
       inkscape:connector-curvature="0"
       style="fill:none;stroke:#000000;stroke-width:5.43300867"
       d="M 246.02631,243.70243 235.87086,243.70243 225.71539,249.51558 220.63768,255.32873 215.55996,266.95503 215.55996,278.58133 220.63768,290.20764 230.79313,296.02078 240.94857,296.02078 251.10403,290.20764 256.18175,284.39449 261.25946,272.76818 261.25946,261.14188 256.18175,249.51558 246.02631,243.70243 244.43793,250.17515 C 242.15164,251.34859 243.31092,252.73004 246.64324,253.83989 249.97556,254.94974 255.48093,255.78799 261.88683,255.87504 268.29273,255.96209 275.59917,255.29795 282.53363,253.403 289.46809,251.50805 281.13696,255.82911 286.05495,250.99295"
       id="path6426"
       sodipodi:nodetypes="ccccccccccccccccsssc" />
  </g>
</svg>
