<?xml version="1.0" encoding="UTF-8" standalone="no"?>
<!-- Created with Inkscape (http://www.inkscape.org/) -->

<svg
   xmlns:dc="http://purl.org/dc/elements/1.1/"
   xmlns:cc="http://creativecommons.org/ns#"
   xmlns:rdf="http://www.w3.org/1999/02/22-rdf-syntax-ns#"
   xmlns:svg="http://www.w3.org/2000/svg"
   xmlns="http://www.w3.org/2000/svg"
   xmlns:sodipodi="http://sodipodi.sourceforge.net/DTD/sodipodi-0.dtd"
   xmlns:inkscape="http://www.inkscape.org/namespaces/inkscape"
   width="80mm"
   height="95mm"
   viewBox="0 0 283.46457 336.61417"
   id="svg3658"
   version="1.1"
   inkscape:version="0.91 r13725"
   sodipodi:docname="helloCh.svg">
  <defs
     id="defs3660" />
  <sodipodi:namedview
     id="base"
     pagecolor="#ffffff"
     bordercolor="#666666"
     borderopacity="1.0"
     inkscape:pageopacity="0.0"
     inkscape:pageshadow="2"
     inkscape:zoom="10.590999"
     inkscape:cx="214.5492"
     inkscape:cy="82.751014"
     inkscape:document-units="mm"
     inkscape:current-layer="layer1"
     showgrid="false"
     inkscape:window-width="1308"
     inkscape:window-height="749"
     inkscape:window-x="-4"
     inkscape:window-y="-4"
     inkscape:window-maximized="1" />
  <metadata
     id="metadata3663">
    <rdf:RDF>
      <cc:Work
         rdf:about="">
        <dc:format>image/svg+xml</dc:format>
        <dc:type
           rdf:resource="http://purl.org/dc/dcmitype/StillImage" />
        <dc:title></dc:title>
      </cc:Work>
    </rdf:RDF>
  </metadata>
  <g
     inkscape:label="Layer 1"
     inkscape:groupmode="layer"
     id="layer1"
     transform="translate(0,-715.74803)">
    <g
       id="g4195">
      <path
         inkscape:connector-curvature="0"
         id="path3824"
         d="M 57.575749,894.18528 55.494415,900.25946 C 55.494415,900.66439 55.604112,901.09013 55.494415,901.47429 55.249129,902.3333 54.699036,903.04494 54.453749,903.90396 54.344053,904.28812 54.563445,904.73462 54.453749,905.11879 54.208462,905.97781 53.658369,906.68944 53.413082,907.54844 52.0256,911.64655 46.566093,938.51001 43.006412,937.91928 42.761125,938.20562 43.161546,938.77192 43.006412,939.13411 40.258723,943.43926 41.001104,939.5639 35.721744,946.42311 L 34.681078,947.63795 C 34.334188,948.0429 33.859801,948.34056 33.640409,948.85278 33.485277,949.21497 33.795543,949.70542 33.640409,950.06761 33.421017,950.57983 32.819135,950.77024 32.599742,951.28244 32.444609,951.64465 32.754876,952.13508 32.599742,952.49729 32.38035,953.00949 31.778468,953.1999 31.559076,953.71212 31.403943,954.07432 31.804363,954.64062 31.559076,954.92696 31.313789,955.2133 30.763696,954.64062 30.518409,954.92696 30.273122,955.2133 30.518409,955.73684 30.518409,956.14179 L 30.518409,957.35662"
         style="fill:none;fill-rule:evenodd;stroke:#000000;stroke-width:1.85719121px;stroke-linecap:butt;stroke-linejoin:miter;stroke-opacity:1"
         sodipodi:nodetypes="ccsssccccsssccssssc" />
      <path
         inkscape:connector-curvature="0"
         id="path3826"
         d="M 48.209747,926.98578 48.209747,968.29012 48.209747,1009.5945"
         style="fill:none;fill-rule:evenodd;stroke:#000000;stroke-width:1.85719121px;stroke-linecap:butt;stroke-linejoin:miter;stroke-opacity:1"
         sodipodi:nodetypes="ccc" />
      <path
         inkscape:connector-curvature="0"
         id="path3832"
         d="M 101.28376,891.75562 C 103.69857,902.68016 99.202426,907.30575 99.202426,916.05228 99.202426,916.45723 99.35756,916.90492 99.202426,917.26712 98.983034,917.77934 98.381152,917.96975 98.16176,918.48195 98.006626,918.84414 98.16176,919.29185 98.16176,919.69678 98.16176,920.50668 98.381152,921.35811 98.16176,922.12646 95.395051,926.54795 96.365864,929.81664 93.999093,929.41544 93.560309,929.67157 93.397209,930.37418 92.958425,930.63027 92.648159,930.81139 92.228026,930.44918 91.917758,930.63027 91.478975,930.8864 91.22398,931.44017 90.877091,931.84513 L 87.755092,935.48962 85.673757,937.91928 C 85.326868,938.32423 84.788223,938.59083 84.63309,939.13411 84.413698,939.90245 84.852482,940.79545 84.63309,941.56379 84.555624,941.83509 82.701129,943.64471 82.551757,943.99345 82.396622,944.35564 82.551757,944.80333 82.551757,945.20828"
         style="fill:none;fill-rule:evenodd;stroke:#000000;stroke-width:1.85719121px;stroke-linecap:butt;stroke-linejoin:miter;stroke-opacity:1"
         sodipodi:nodetypes="ccsssccccccssssc" />
      <path
         inkscape:connector-curvature="0"
         id="path3834"
         d="M 102.32443,920.91163 C 111.34354,920.91163 120.36265,920.91163 129.38177,920.91163 131.11621,920.91163 132.85065,920.91163 134.58511,920.91163 134.93198,920.91163 135.27888,920.91163 135.62578,920.91163 135.97266,920.91163 136.35617,921.09273 136.66643,920.91163 137.10523,920.6555 137.26831,919.95289 137.7071,919.69678 138.01737,919.51568 138.43751,919.8779 138.74777,919.69678 139.18655,919.44067 139.34967,918.73806 139.78843,918.48195 140.0987,918.30085 140.48222,918.48195 140.8291,918.48195 141.52289,918.48195 142.21666,918.48195 142.91044,918.48195 143.25732,918.48195 143.64084,918.66304 143.95111,918.48195 144.3899,918.22584 144.55299,917.52323 144.99178,917.26712 145.30203,917.08602 145.68555,917.26712 146.03244,917.26712 146.72621,917.26712 147.41999,917.26712 148.11376,917.26712 148.46066,917.26712 148.84417,917.44821 149.15443,917.26712 149.59322,917.01101 149.84822,916.45723 150.19512,916.05228"
         style="fill:none;fill-rule:evenodd;stroke:#000000;stroke-width:1.85719121px;stroke-linecap:butt;stroke-linejoin:miter;stroke-opacity:1" />
      <path
         inkscape:connector-curvature="0"
         id="path3836"
         d="M 149.15443,913.62262 C 148.80756,915.64733 148.46066,917.67207 148.11376,919.69678 146.43107,921.27088 147.07311,923.42352 147.07311,925.77095 147.07311,926.1759 147.22823,926.6236 147.07311,926.98578 146.85372,927.498 146.25182,927.68839 146.03244,928.20061 145.02726,930.4339 145.03754,933.34426 142.91044,935.48962 142.75531,935.85181 142.91044,936.2995 142.91044,936.70445 L 142.91044,937.91928"
         style="fill:none;fill-rule:evenodd;stroke:#000000;stroke-width:1.85719121px;stroke-linecap:butt;stroke-linejoin:miter;stroke-opacity:1"
         sodipodi:nodetypes="ccccccsc" />
      <path
         inkscape:connector-curvature="0"
         id="path3840"
         d="M 121.05643,929.41544 121.05643,982.86812 121.05643,992.58678 121.05643,993.80163 C 120.76969,996.30065 115.19041,995.95333 112.7311,997.44611 112.05803,997.64254 111.34354,997.44611 110.64977,997.44611 L 105.44642,997.44611 C 105.09954,997.44611 104.65105,997.73245 104.40576,997.44611 104.16047,997.15977 104.40576,996.63623 104.40576,996.23128"
         style="fill:none;fill-rule:evenodd;stroke:#000000;stroke-width:1.85719121px;stroke-linecap:butt;stroke-linejoin:miter;stroke-opacity:1"
         sodipodi:nodetypes="cccccsssc" />
      <path
         inkscape:connector-curvature="0"
         id="path3842"
         d="M 87.755092,957.35662 C 87.408201,959.38134 86.964568,961.38672 86.714423,963.43079 86.616309,964.23252 86.714423,965.05055 86.714423,965.86045 86.714423,966.2654 86.824119,966.69112 86.714423,967.07528 85.289597,972.36574 82.765581,982.01694 79.429755,985.29779 L 78.389088,986.51262 C 78.0422,986.91757 77.567814,987.21523 77.348422,987.72745 77.193288,988.08964 77.503555,988.58009 77.348422,988.94228 77.12903,989.4545 76.527147,989.64489 76.307755,990.15711 76.152621,990.5193 76.553042,991.0856 76.307755,991.37194 74.920198,992.99173 75.267087,989.34723 75.267087,992.58678"
         style="fill:none;fill-rule:evenodd;stroke:#000000;stroke-width:1.85719121px;stroke-linecap:butt;stroke-linejoin:miter;stroke-opacity:1"
         sodipodi:nodetypes="cssccsssssc" />
      <path
         inkscape:connector-curvature="0"
         id="path3852"
         d="M 136.66643,962.21596 C 138.05399,963.43079 139.60266,964.42875 140.8291,965.86045 141.79307,970.83172 142.8646,975.02837 142.91044,980.43844 143.15574,980.72478 143.70582,980.1521 143.95111,980.43844 144.19639,980.72478 143.95111,981.24834 143.95111,981.65327 L 143.95111,984.08295"
         style="fill:none;fill-rule:evenodd;stroke:#000000;stroke-width:1.85719121px;stroke-linecap:butt;stroke-linejoin:miter;stroke-opacity:1"
         sodipodi:nodetypes="ccccsc" />
      <path
         inkscape:connector-curvature="0"
         id="path3856"
         d="M 204.30979,891.75562 203.26911,896.61495 C 203.26911,897.42485 203.4374,898.25891 203.26911,899.04461 202.89286,900.80152 201.56403,902.14706 201.18778,903.90396 201.01952,904.68966 201.35605,905.54791 201.18778,906.33361 200.99966,907.21206 200.33526,907.88484 200.14711,908.76327 199.81059,910.3347 200.48364,912.0512 200.14711,913.62262 199.959,914.50107 199.29459,915.17384 199.10646,916.05228 199.07369,924.99038 193.42829,936.13376 192.86245,936.70445 192.70731,937.06663 192.97215,937.53511 192.86245,937.91928 190.53219,945.18728 189.59623,953.89637 187.65913,956.14179 187.31223,956.54674 186.83784,956.84439 186.61846,957.35662 186.46332,957.7188 186.86374,958.2851 186.61846,958.57145 191.63008,959.27345 200.29235,963.81356 208.67941,968.59108 217.06647,973.3686 237.35848,986.12595 241.2693,987.77756"
         style="fill:none;fill-rule:evenodd;stroke:#000000;stroke-width:1.85719121px;stroke-linecap:butt;stroke-linejoin:miter;stroke-opacity:1"
         sodipodi:nodetypes="cccscccccccccsc" />
      <path
         sodipodi:nodetypes="ccc"
         inkscape:connector-curvature="0"
         id="path3858"
         d="M 176.21177,907.54844 202.85004,907.54844 229.48831,907.54844"
         style="fill:none;fill-rule:evenodd;stroke:#000000;stroke-width:1.85719121px;stroke-linecap:butt;stroke-linejoin:miter;stroke-opacity:1" />
      <path
         inkscape:connector-curvature="0"
         id="path3860"
         d="M 227.20446,907.54844 C 226.29739,910.68316 227.7487,914.09048 227.20446,917.26712 227.05233,918.15501 226.35193,918.81833 226.16379,919.69678 225.99553,920.4825 226.16379,921.31656 226.16379,922.12646 225.8169,922.93634 225.36842,923.69709 225.12312,924.55612 225.01342,924.94028 225.27826,925.40876 225.12312,925.77095 221.4693,934.91579 219.61615,943.35822 217.83846,954.92696 217.68633,955.81485 217.08587,956.51589 216.79779,957.35662 216.39039,958.54558 216.2477,959.85576 215.75712,961.0011 215.53775,961.51334 214.87159,961.67266 214.71646,962.21596 214.49706,962.98428 215.10129,963.97175 214.71646,964.64562 214.2862,965.39901 213.06539,965.10703 212.63513,965.86045 212.25028,966.53432 212.85451,967.52179 212.63513,968.29011 212.47998,968.8334 211.86657,969.02846 211.59445,969.50495 211.16419,970.25836 210.98405,971.18121 210.55378,971.93461 210.28166,972.41112 209.78524,972.67295 209.51312,973.14946 209.08285,973.90286 208.93785,974.85472 208.47246,975.57912 207.88376,976.49541 207.08489,977.1989 206.39112,978.00878 206.04423,978.41373 205.62258,978.74713 205.35046,979.22361 203.22069,982.7894 202.03975,986.81288 194.94379,995.01645 L 192.86245,997.44611 C 192.51557,997.85106 192.04118,998.14872 191.82178,998.66094 191.66665,999.02314 192.06707,999.58944 191.82178,999.87578 191.5765,1000.1621 191.09138,999.69468 190.78111,999.87578 190.34233,1000.1319 190.08734,1000.6857 189.74045,1001.0906"
         style="fill:none;fill-rule:evenodd;stroke:#000000;stroke-width:1.85719121px;stroke-linecap:butt;stroke-linejoin:miter;stroke-opacity:1"
         sodipodi:nodetypes="ccccsccscccccscccsccccccc" />
      <path
         inkscape:connector-curvature="0"
         id="path3862"
         d="M 242.63458,904.81466 255.12258,904.81466 C 256.16325,904.81466 257.21807,905.01437 258.24459,904.81466 263.67095,902.78367 269.77206,903.59981 275.93593,903.59981 L 283.22059,903.59981 C 283.91437,903.59981 284.62886,903.79626 285.30193,903.59981 286.05444,903.38021 286.64739,902.67132 287.38327,902.38498 287.71235,902.25693 288.07704,902.38498 288.42392,902.38498 L 290.50526,902.38498"
         style="fill:none;fill-rule:evenodd;stroke:#000000;stroke-width:1.85719121px;stroke-linecap:butt;stroke-linejoin:miter;stroke-opacity:1"
         sodipodi:nodetypes="csccscssc" />
      <path
         inkscape:connector-curvature="0"
         id="path3864"
         d="M 290.50526,902.38498 C 287.38327,906.02949 284.26124,909.67399 281.13926,913.31847 280.44549,914.12837 279.75169,914.93825 279.05792,915.74815 276.98433,918.1615 276.19835,921.4875 274.89525,924.25198 272.07757,926.21702 272.84326,929.46515 270.73259,931.54098 270.38569,931.94593 270.03882,932.35088 269.69192,932.75581"
         style="fill:none;fill-rule:evenodd;stroke:#000000;stroke-width:1.85719121px;stroke-linecap:butt;stroke-linejoin:miter;stroke-opacity:1"
         sodipodi:nodetypes="cscccc" />
      <path
         inkscape:connector-curvature="0"
         id="path3866"
         d="M 268.65126,931.54098 268.65126,960.69698 268.65126,966.77115 C 268.65126,967.58103 268.43186,968.4325 268.65126,969.20082 269.93721,973.70433 269.69192,967.71999 269.69192,971.63048 268.08963,978.3874 270.73259,984.0254 270.73259,989.85298 271.30506,994.73703 271.04271,1004.0037 266.56991,1003.2162 L 265.52925,1003.2162 C 262.93102,1003.2161 261.74172,1004.0131 257.56321,1001.4915 253.56668,996.51691 244.7891,989.89365 248.68976,992.95371"
         style="fill:none;fill-rule:evenodd;stroke:#000000;stroke-width:1.85719121px;stroke-linecap:butt;stroke-linejoin:miter;stroke-opacity:1"
         sodipodi:nodetypes="ccsccccccc" />
      <path
         inkscape:connector-curvature="0"
         id="path3870"
         d="M 239.51257,954.62281 C 243.58805,954.07876 250.34454,948.54865 268.65126,948.54865 L 282.17992,948.54865 292.58659,948.54865 295.7086,948.54865 C 296.05547,948.54865 296.74927,948.1437 296.74927,948.54865 296.74927,948.9536 296.05547,948.54865 295.7086,948.54865"
         style="fill:none;fill-rule:evenodd;stroke:#000000;stroke-width:1.85719121px;stroke-linecap:butt;stroke-linejoin:miter;stroke-opacity:1"
         sodipodi:nodetypes="ccccssc" />
    </g>
  </g>
</svg>
