<?xml version="1.0" encoding="UTF-8" standalone="no"?>
<!-- Created with Inkscape (http://www.inkscape.org/) -->

<svg
   xmlns:dc="http://purl.org/dc/elements/1.1/"
   xmlns:cc="http://creativecommons.org/ns#"
   xmlns:rdf="http://www.w3.org/1999/02/22-rdf-syntax-ns#"
   xmlns:svg="http://www.w3.org/2000/svg"
   xmlns="http://www.w3.org/2000/svg"
   xmlns:sodipodi="http://sodipodi.sourceforge.net/DTD/sodipodi-0.dtd"
   xmlns:inkscape="http://www.inkscape.org/namespaces/inkscape"
   width="80mm"
   height="95mm"
   viewBox="0 0 283.46457 336.61417"
   id="svg2"
   version="1.1"
   inkscape:version="0.91 r13725"
   sodipodi:docname="helloJpF.svg">
  <defs
     id="defs4" />
  <sodipodi:namedview
     id="base"
     pagecolor="#ffffff"
     bordercolor="#666666"
     borderopacity="1.0"
     inkscape:pageopacity="0.0"
     inkscape:pageshadow="2"
     inkscape:zoom="1.6517427"
     inkscape:cx="141.73228"
     inkscape:cy="168.30709"
     inkscape:document-units="mm"
     inkscape:current-layer="svg2"
     showgrid="false"
     inkscape:window-width="1308"
     inkscape:window-height="749"
     inkscape:window-x="-4"
     inkscape:window-y="-4"
     inkscape:window-maximized="1" />
  <metadata
     id="metadata7">
    <rdf:RDF>
      <cc:Work
         rdf:about="">
        <dc:format>image/svg+xml</dc:format>
        <dc:type
           rdf:resource="http://purl.org/dc/dcmitype/StillImage" />
        <dc:title />
      </cc:Work>
    </rdf:RDF>
  </metadata>
  <g
     id="g3688">
    <path
       inkscape:connector-curvature="0"
       id="path3348"
       d="M 6.3874748,216.43666 15.640573,216.11786 24.893671,215.79906 34.146769,215.48027 43.399868,215.16147"
       style="fill:none;fill-rule:evenodd;stroke:#000000;stroke-width:1.51638877px;stroke-linecap:butt;stroke-linejoin:miter;stroke-opacity:1"
       sodipodi:nodetypes="ccccc" />
    <path
       sodipodi:nodetypes="csssc"
       inkscape:connector-curvature="0"
       id="path3350"
       d="M 6.3874748,264.89415 C 4.8976864,271.60047 4.4375965,277.14191 4.7545596,281.7114 5.2079657,288.24794 7.2514121,292.79566 10.145382,295.91943 14.13605,300.22699 19.744016,301.82686 25.030167,302.20013 32.789021,302.74801 39.854576,300.65338 40.095191,300.59965"
       style="fill:none;fill-rule:evenodd;stroke:#000000;stroke-width:1.51638877px;stroke-linecap:butt;stroke-linejoin:miter;stroke-opacity:1" />
    <path
       inkscape:connector-curvature="0"
       id="path3352"
       d="M 54.002119,301.71087 66.121143,276.60995 78.240165,251.50903 90.359189,226.40813 102.47821,201.30723"
       style="fill:none;fill-rule:evenodd;stroke:#000000;stroke-width:1.9545244px;stroke-linecap:butt;stroke-linejoin:miter;stroke-opacity:1"
       sodipodi:nodetypes="ccccc" />
    <path
       sodipodi:nodetypes="cssssc"
       inkscape:connector-curvature="0"
       id="path3354"
       d="M 73.833247,258.49918 C 78.17793,255.6352 80.250185,257.29523 81.106464,261.32782 82.112339,266.06494 81.440251,274.07609 80.802712,281.87385 79.595601,296.63802 74.879826,308.21556 85.54439,297.77851 88.550128,294.8369 88.856531,292.98127 93.9889,285.62748 96.44067,282.11452 95.532243,275.61599 98.557074,270.91745"
       style="fill:none;fill-rule:evenodd;stroke:#000000;stroke-width:1.9545244px;stroke-linecap:butt;stroke-linejoin:miter;stroke-opacity:1" />
    <path
       sodipodi:nodetypes="csssc"
       inkscape:connector-curvature="0"
       id="path3356"
       d="M 128.59457,199.25369 C 123.94164,208.50799 120.89718,217.46203 119.10457,226.16264 117.42318,234.32338 116.84311,242.26117 117.07007,250.01467 117.32337,258.66809 118.58192,267.09195 120.4366,275.33999 122.42044,284.16238 125.08634,292.7836 127.93364,301.26942"
       style="fill:none;fill-rule:evenodd;stroke:#000000;stroke-width:1.51638877px;stroke-linecap:butt;stroke-linejoin:miter;stroke-opacity:1" />
    <path
       inkscape:connector-curvature="0"
       id="path3358"
       d="M 148.53366,211.94131 164.04859,211.35436 182.24138,210.66611"
       style="fill:none;fill-rule:evenodd;stroke:#000000;stroke-width:1.51638877px;stroke-linecap:butt;stroke-linejoin:miter;stroke-opacity:1"
       sodipodi:nodetypes="ccc" />
    <path
       sodipodi:nodetypes="csssc"
       inkscape:connector-curvature="0"
       id="path3360"
       d="M 147.88901,262.71421 C 145.38854,270.45217 146.40867,276.074 149.37648,280.15264 151.87521,283.58661 155.75459,285.92666 160.07586,287.51471 165.15463,289.38113 170.84379,290.20881 175.61931,290.55284 181.56254,290.98099 186.09069,290.66007 186.2661,290.66007"
       style="fill:none;fill-rule:evenodd;stroke:#000000;stroke-width:2.11195755px;stroke-linecap:butt;stroke-linejoin:miter;stroke-opacity:1" />
    <path
       sodipodi:nodetypes="cccccssssc"
       inkscape:connector-curvature="0"
       id="path3362"
       d="M 206.26059,196.66974 203.95081,212.59907 201.64104,228.5284 199.33127,244.45774 197.02148,260.38706 C 201.56646,252.86442 208.86149,250.44861 215.62018,251.30464 221.72598,252.07796 227.39405,255.52153 230.20142,260.28241 232.77162,264.64108 232.94405,270.10391 228.85935,275.63268 227.17374,277.91421 224.50329,279.86747 221.49701,282.43801 215.31355,287.72522 202.84738,286.57423 199.28163,287.42313"
       style="fill:none;fill-rule:evenodd;stroke:#000000;stroke-width:1.63610315px;stroke-linecap:butt;stroke-linejoin:miter;stroke-opacity:1" />
    <path
       inkscape:connector-curvature="0"
       id="path3364"
       d="M 190.09215,211.96192 210.11077,211.34833 231.66816,210.68757"
       style="fill:none;fill-rule:evenodd;stroke:#000000;stroke-width:1.63610315px;stroke-linecap:butt;stroke-linejoin:miter;stroke-opacity:1"
       sodipodi:nodetypes="ccc" />
    <path
       style="fill:none;fill-rule:evenodd;stroke:#000000;stroke-width:1.51638877px;stroke-linecap:butt;stroke-linejoin:miter;stroke-opacity:1"
       d="M 256.47054,196.65909 C 251.81761,205.91339 248.77315,214.86743 246.98054,223.56804 245.29915,231.72878 244.71908,239.66657 244.94604,247.42007 245.19934,256.07349 246.45789,264.49735 248.31257,272.74539 250.29641,281.56778 252.96231,290.189 255.80961,298.67482"
       id="path3356-2"
       inkscape:connector-curvature="0"
       sodipodi:nodetypes="csssc" />
    <path
       sodipodi:nodetypes="cssscsssssc"
       inkscape:connector-curvature="0"
       id="path3383"
       d="M 297.25031,201.89704 C 297.46145,225.77758 297.61982,243.59472 297.73859,256.8876 297.85736,270.18048 297.93653,278.94912 297.98933,284.73269 298.04212,290.51627 298.06851,293.31476 298.08171,294.66736 298.0949,296.01999 298.0949,295.9267 298.0949,295.9267 297.07975,295.61569 293.78564,297.01569 292.86495,296.7005 289.47802,295.54107 285.53812,294.85158 283.95814,296.77035 276.07997,306.33779 267.67872,283.07085 267.99192,279.92398 268.32495,276.5779 279.28841,270.65047 284.50578,268.93008 288.75446,267.5291 296.37804,274.77635 301.40394,275.31583 307.868,276.00969 314.0409,278.62688 317.52015,283.98641"
       style="fill:none;fill-rule:evenodd;stroke:#000000;stroke-width:1.85448825px;stroke-linecap:butt;stroke-linejoin:miter;stroke-opacity:1" />
    <path
       inkscape:connector-curvature="0"
       id="path3385"
       d="M 271.47293,217.42821 C 279.21239,218.01245 287.37556,218.38198 295.46529,218.19327 303.07026,218.01586 310.61032,217.34511 317.67242,215.89559 L 317.67242,215.89559"
       style="fill:none;fill-rule:evenodd;stroke:#000000;stroke-width:1.51638877px;stroke-linecap:butt;stroke-linejoin:miter;stroke-opacity:1"
       sodipodi:nodetypes="cscc" />
  </g>
</svg>
